<?xml version="1.0" encoding="UTF-8"?>
<!DOCTYPE svg PUBLIC "-//W3C//DTD SVG 1.1//EN" "http://www.w3.org/Graphics/SVG/1.1/DTD/svg11.dtd">
<!-- Creator: CorelDRAW X8 -->
<svg xmlns="http://www.w3.org/2000/svg" xml:space="preserve" width="926px" height="584px" version="1.1" style="shape-rendering:geometricPrecision; text-rendering:geometricPrecision; image-rendering:optimizeQuality; fill-rule:evenodd; clip-rule:evenodd"
viewBox="0 0 1595 1006"
 xmlns:xlink="http://www.w3.org/1999/xlink">
 <defs>
  <style type="text/css">
   <![CDATA[
    .fil4 {fill:black;fill-rule:nonzero}
    .fil3 {fill:#6B6B6E;fill-rule:nonzero}
    .fil0 {fill:url(#id0);fill-rule:nonzero}
    .fil1 {fill:url(#id1);fill-rule:nonzero;fill-opacity:0.800000}
    .fil2 {fill:url(#id2);fill-rule:nonzero;fill-opacity:0.850980}
   ]]>
  </style>
  <linearGradient id="id0" gradientUnits="userSpaceOnUse" x1="652.431" y1="300.624" x2="777.269" y2="108.208">
   <stop offset="0" style="stop-opacity:1; stop-color:#F5682C"/>
   <stop offset="1" style="stop-opacity:1; stop-color:#FFAB24"/>
  </linearGradient>
  <linearGradient id="id1" gradientUnits="userSpaceOnUse" x1="870.86" y1="177.683" x2="1052.75" y2="135.385">
   <stop offset="0" style="stop-opacity:1; stop-color:#0097BD"/>
   <stop offset="1" style="stop-opacity:1; stop-color:#10BDE0"/>
  </linearGradient>
  <linearGradient id="id2" gradientUnits="userSpaceOnUse" x1="817.555" y1="426.543" x2="876.005" y2="224.019">
   <stop offset="0" style="stop-opacity:1; stop-color:#3F993F"/>
   <stop offset="1" style="stop-opacity:1; stop-color:#98CA48"/>
  </linearGradient>
 </defs>
 <g id="Camada_x0020_1">
  <metadata id="CorelCorpID_0Corel-Layer"/>
  <g id="_1139710016">
   <g>
    <path class="fil0" d="M889 303c0,37 -31,67 -68,67l-225 0c-37,0 -67,-30 -67,-67l0 -178c0,-37 30,-67 67,-67l225 0c37,0 68,30 68,67l0 178z"/>
   </g>
   <g>
    <path class="fil1" d="M1143 245c0,37 -31,68 -68,68l-225 0c-37,0 -67,-31 -67,-68l0 -178c0,-37 30,-67 67,-67l225 0c37,0 68,30 68,67l0 178z"/>
   </g>
   <g>
    <path class="fil2" d="M1019 442c0,37 -31,67 -68,67l-225 0c-37,0 -67,-30 -67,-67l0 -178c0,-37 30,-67 67,-67l225 0c37,0 68,30 68,67l0 178z"/>
   </g>
   <path class="fil3" d="M858 959c0,1 0,2 -1,2 0,1 0,1 -1,1 0,1 -1,1 -1,1 -1,1 -1,1 -2,1 0,0 -1,0 -1,-1 -1,0 -1,0 -2,-1 0,0 0,0 -1,-1 0,0 0,-1 0,-2 0,0 0,-1 0,-1 1,-1 1,-1 1,-2 1,0 1,0 2,-1 0,0 1,0 1,0 1,0 1,0 2,0 0,1 1,1 1,1 1,1 1,1 1,2 1,0 1,1 1,1zm-2 11l0 0 0 35 -6 0 0 -35 6 0zm-11 35l0 0 -6 0c-1,0 -2,-1 -2,-1l-13 -18c0,0 -1,-1 -1,-1 -1,0 -1,0 -2,0l-5 0 0 20 -7 0 0 -49 14 0c3,0 6,0 8,1 2,1 4,1 5,3 2,1 3,2 4,4 0,2 1,3 1,6 0,1 0,3 -1,4 -1,2 -1,3 -2,4 -1,2 -3,3 -4,4 -2,0 -3,1 -5,1 1,1 1,2 2,3l14 19zm-22 -25l0 0c1,0 3,-1 5,-1 1,0 2,-1 3,-2 1,-1 2,-2 3,-3 0,-1 0,-3 0,-4 0,-3 -1,-5 -3,-7 -1,-1 -4,-2 -8,-2l-7 0 0 19 7 0zm-57 21l0 0c3,0 6,-1 8,-4 1,-2 2,-5 2,-9 0,-4 -1,-8 -2,-10 -2,-2 -5,-3 -8,-3 -2,0 -3,0 -5,0 -1,1 -2,2 -3,3 -1,1 -1,2 -2,4 0,2 0,4 0,6 0,4 0,7 2,9 2,3 4,4 8,4zm0 -31l0 0c2,0 5,0 7,1 2,1 3,2 5,4 1,1 2,3 3,5 1,2 1,5 1,8 0,2 0,5 -1,7 -1,2 -2,4 -3,6 -2,1 -3,2 -5,3 -2,1 -5,1 -7,1 -3,0 -5,0 -7,-1 -2,-1 -4,-2 -5,-3 -2,-2 -3,-4 -4,-6 0,-2 -1,-5 -1,-7 0,-3 1,-6 1,-8 1,-2 2,-4 4,-5 1,-2 3,-3 5,-4 2,-1 4,-1 7,-1zm-24 -15l0 0 0 50 -4 0c-1,0 -1,0 -2,-1l0 -5c-2,2 -3,4 -5,5 -2,1 -4,1 -7,1 -2,0 -4,0 -5,-1 -2,0 -3,-2 -4,-3 -2,-2 -2,-3 -3,-6 -1,-2 -1,-4 -1,-7 0,-3 0,-5 1,-7 1,-3 2,-4 3,-6 1,-2 3,-3 5,-4 2,-1 4,-1 6,-1 2,0 4,0 5,1 2,1 3,1 4,3l0 -19 7 0zm-7 24l0 0c-1,-2 -2,-3 -3,-4 -2,0 -3,-1 -5,-1 -3,0 -5,2 -7,4 -2,2 -3,5 -3,10 0,2 0,4 1,6 0,1 1,2 2,4 0,1 1,1 2,2 1,0 3,1 4,1 2,0 4,-1 5,-2 2,-1 3,-2 4,-4l0 -16zm-48 21l0 0c0,1 -1,2 -2,2 -1,1 -2,2 -4,2 -1,1 -2,1 -3,1 -2,0 -3,0 -4,0 -3,0 -5,0 -7,-1 -2,-1 -4,-2 -5,-3 -2,-2 -3,-4 -4,-6 0,-2 -1,-5 -1,-8 0,-2 1,-5 1,-7 1,-2 2,-4 4,-5 1,-2 3,-3 5,-4 2,-1 4,-1 6,-1 3,0 4,0 6,1 2,1 4,2 5,3 1,1 2,3 3,5 1,2 1,4 1,6 0,1 0,2 0,2 -1,1 -1,1 -2,1l-23 0c0,2 1,4 1,5 1,2 1,3 2,4 1,2 3,2 4,3 1,0 3,1 4,1 2,0 3,-1 4,-1 1,0 2,-1 3,-1 1,0 2,-1 2,-1 1,-1 1,-1 1,-1 1,0 1,1 2,1l1 2zm-5 -16l0 0c0,-2 0,-3 0,-4 -1,-1 -1,-2 -2,-3 -1,-1 -2,-2 -3,-2 -1,-1 -2,-1 -3,-1 -3,0 -6,1 -7,3 -2,1 -3,4 -4,7l19 0zm-33 -29l0 0 0 50 -6 0 0 -50 6 0zm-41 20l0 0c2,-2 4,-3 6,-4 3,-1 5,-1 8,-1 2,0 3,0 5,1 1,0 3,1 4,2 1,1 1,3 2,4 1,2 1,4 1,6l0 22 -3 0c0,0 -1,0 -1,0 -1,-1 -1,-1 -1,-1l-1 -4c-1,1 -1,2 -2,2 -1,1 -2,2 -3,2 -1,1 -2,1 -3,1 -1,0 -2,1 -4,1 -1,0 -2,-1 -4,-1 -1,0 -2,-1 -3,-2 -1,0 -1,-1 -2,-3 0,-1 -1,-2 -1,-4 0,-1 1,-2 2,-4 0,-1 2,-2 3,-3 2,-1 4,-2 7,-2 3,-1 6,-1 10,-1l0 -3c0,-3 -1,-5 -2,-6 -1,-2 -3,-2 -5,-2 -1,0 -3,0 -4,0 -1,1 -2,1 -2,1 -1,1 -2,1 -2,2 -1,0 -1,0 -2,0 0,0 -1,0 -1,0 0,0 -1,-1 -1,-1l-1 -2zm20 14l0 0c-3,0 -5,1 -7,1 -2,0 -4,1 -5,1 -1,1 -2,2 -3,2 0,1 -1,2 -1,3 0,1 0,2 1,2 0,1 0,2 1,2 1,0 1,1 2,1 1,0 1,0 2,0 1,0 2,0 3,0 1,0 2,-1 3,-1 0,0 1,-1 2,-1 0,-1 1,-2 2,-2l0 -8zm-19 -33l0 0 -20 49 -6 0 -20 -49 5 0c1,0 2,0 2,0 0,1 1,1 1,2l14 34c0,1 0,2 0,3 1,1 1,2 1,3 0,-1 1,-2 1,-3 0,-1 0,-2 1,-3l14 -34c0,-1 0,-1 0,-2 1,0 1,0 2,0l5 0zm-80 45l0 0c3,0 5,-1 7,-4 2,-2 3,-5 3,-9 0,-4 -1,-8 -3,-10 -2,-2 -4,-3 -7,-3 -2,0 -4,0 -5,0 -1,1 -2,2 -3,3 -1,1 -2,2 -2,4 -1,2 -1,4 -1,6 0,4 1,7 3,9 1,3 4,4 8,4zm0 -31l0 0c2,0 4,0 6,1 2,1 4,2 6,4 1,1 2,3 3,5 1,2 1,5 1,8 0,2 0,5 -1,7 -1,2 -2,4 -3,6 -2,1 -4,2 -6,3 -2,1 -4,1 -6,1 -3,0 -5,0 -7,-1 -2,-1 -4,-2 -6,-3 -1,-2 -2,-4 -3,-6 -1,-2 -1,-5 -1,-7 0,-3 0,-6 1,-8 1,-2 2,-4 3,-5 2,-2 4,-3 6,-4 2,-1 4,-1 7,-1zm-29 36l0 0c-3,0 -5,-1 -6,-3 -2,-1 -2,-4 -2,-6l0 -22 -4 0c-1,0 -1,0 -1,0 -1,0 -1,0 -1,-1l0 -2 6 -1 1 -11c0,0 1,0 1,-1 0,0 0,0 1,0l3 0 0 12 10 0 0 4 -10 0 0 21c0,2 0,3 1,3 1,1 1,2 3,2 0,0 1,-1 1,-1 1,0 1,0 1,0 1,-1 1,-1 1,-1 1,0 1,0 1,0 0,0 1,0 1,0l2 3c-1,1 -3,2 -4,3 -2,0 -3,1 -5,1zm-20 -51l0 0 0 50 -6 0 0 -50 6 0zm-11 50l0 0 -6 0c0,0 -1,0 -1,0 0,-1 -1,-1 -1,-2l-4 -11 -22 0 -5 11c0,1 0,1 -1,1 0,1 -1,1 -1,1l-5 0 19 -49 7 0 20 49zm-14 -18l0 0 -8 -20c0,-1 0,-1 -1,-2 0,-1 0,-2 0,-3 -1,2 -1,4 -2,5l-8 20 19 0zm-51 13l0 0c-1,1 -2,2 -3,2 -1,1 -2,2 -3,2 -1,1 -3,1 -4,1 -1,0 -2,0 -4,0 -2,0 -4,0 -6,-1 -2,-1 -4,-2 -5,-3 -2,-2 -3,-4 -4,-6 -1,-2 -1,-5 -1,-8 0,-2 0,-5 1,-7 1,-2 2,-4 3,-5 2,-2 3,-3 5,-4 2,-1 5,-1 7,-1 2,0 4,0 6,1 2,1 3,2 4,3 2,1 3,3 3,5 1,2 2,4 2,6 0,1 -1,2 -1,2 0,1 0,1 -1,1l-23 0c0,2 0,4 1,5 0,2 1,3 2,4 1,2 2,2 3,3 2,0 3,1 5,1 1,0 3,-1 4,-1 1,0 2,-1 3,-1 1,0 1,-1 2,-1 0,-1 1,-1 1,-1 1,0 1,1 1,1l2 2zm-5 -16l0 0c0,-2 0,-3 -1,-4 0,-1 -1,-2 -1,-3 -1,-1 -2,-2 -3,-2 -1,-1 -2,-1 -4,-1 -3,0 -5,1 -7,3 -1,1 -3,4 -3,7l19 0zm-33 -29l0 0 0 50 -3 0c-1,0 -2,0 -2,-1l-1 -5c-1,2 -3,4 -5,5 -2,1 -4,1 -6,1 -2,0 -4,0 -6,-1 -1,0 -3,-2 -4,-3 -1,-2 -2,-3 -2,-6 -1,-2 -1,-4 -1,-7 0,-3 0,-5 1,-7 0,-3 1,-4 3,-6 1,-2 2,-3 4,-4 2,-1 4,-1 7,-1 2,0 4,0 5,1 2,1 3,1 4,3l0 -19 6 0zm-6 24l0 0c-1,-2 -2,-3 -4,-4 -1,0 -2,-1 -4,-1 -3,0 -6,2 -7,4 -2,2 -3,5 -3,10 0,2 0,4 1,6 0,1 0,2 1,4 1,1 2,1 3,2 1,0 2,1 4,1 2,0 3,-1 5,-2 2,-1 3,-2 4,-4l0 -16zm-57 -4l0 0c2,-2 4,-3 6,-4 2,-1 4,-1 7,-1 2,0 4,0 5,1 2,0 3,1 4,2 1,1 2,3 2,4 1,2 1,4 1,6l0 22 -2 0c-1,0 -1,0 -2,0 0,-1 0,-1 -1,-1l0 -4c-1,1 -2,2 -3,2 -1,1 -2,2 -3,2 -1,1 -2,1 -3,1 -1,0 -2,1 -3,1 -2,0 -3,-1 -4,-1 -1,0 -2,-1 -3,-2 -1,0 -2,-1 -2,-3 -1,-1 -1,-2 -1,-4 0,-1 0,-2 1,-4 1,-1 2,-2 4,-3 1,-1 4,-2 6,-2 3,-1 6,-1 10,-1l0 -3c0,-3 0,-5 -1,-6 -2,-2 -3,-2 -6,-2 -1,0 -2,0 -3,0 -1,1 -2,1 -3,1 -1,1 -1,1 -2,2 0,0 -1,0 -1,0 -1,0 -1,0 -2,0 0,0 0,-1 0,-1l-1 -2zm19 14l0 0c-3,0 -5,1 -7,1 -2,0 -3,1 -5,1 -1,1 -2,2 -2,2 -1,1 -1,2 -1,3 0,1 0,2 0,2 1,1 1,2 1,2 1,0 2,1 2,1 1,0 2,0 2,0 2,0 3,0 3,0 1,0 2,-1 3,-1 1,0 1,-1 2,-1 1,-1 2,-2 2,-2l0 -8zm-28 -34l0 0 0 50 -4 0c-1,0 -1,0 -1,-1l-1 -5c-1,2 -3,4 -5,5 -2,1 -4,1 -7,1 -2,0 -3,0 -5,-1 -2,0 -3,-2 -4,-3 -1,-2 -2,-3 -3,-6 0,-2 -1,-4 -1,-7 0,-3 1,-5 1,-7 1,-3 2,-4 3,-6 2,-2 3,-3 5,-4 2,-1 4,-1 6,-1 2,0 4,0 6,1 1,1 3,1 4,3l0 -19 6 0zm-6 24l0 0c-1,-2 -3,-3 -4,-4 -1,0 -3,-1 -4,-1 -4,0 -6,2 -8,4 -2,2 -2,5 -2,10 0,2 0,4 0,6 1,1 1,2 2,4 1,1 2,1 3,2 1,0 2,1 3,1 2,0 4,-1 6,-2 1,-1 3,-2 4,-4l0 -16zm-31 -20l0 0c0,1 -1,2 -1,2 0,1 0,1 -1,1 0,1 -1,1 -1,1 -1,1 -1,1 -2,1 0,0 -1,0 -2,-1 0,0 -1,0 -1,-1 0,0 -1,0 -1,-1 0,0 0,-1 0,-2 0,0 0,-1 0,-1 0,-1 1,-1 1,-2 0,0 1,0 1,-1 1,0 2,0 2,0 1,0 1,0 2,0 0,1 1,1 1,1 1,1 1,1 1,2 0,0 1,1 1,1zm-2 11l0 0 0 35 -6 0 0 -35 6 0zm-16 6l0 0c0,1 0,1 -1,1 0,0 -1,0 -1,-1 -1,0 -1,0 -2,0 0,-1 -1,-1 -2,-1 -1,-1 -2,-1 -3,-1 -1,0 -2,0 -3,1 -1,0 -1,0 -2,1 0,0 -1,1 -1,1 -1,1 -1,2 -1,2 0,1 1,2 1,3 1,0 1,1 2,1 1,1 2,1 3,1 1,1 2,1 3,1 1,1 3,1 4,2 1,0 2,1 2,1 1,1 2,2 3,3 0,1 0,2 0,3 0,2 0,3 -1,5 0,1 -1,2 -2,3 -1,1 -3,2 -4,3 -2,0 -4,1 -6,1 -2,0 -4,-1 -6,-2 -2,0 -4,-1 -5,-3l1 -2c0,0 0,-1 1,-1 0,0 0,0 1,0 0,0 1,0 1,1 0,0 1,0 2,1 0,0 1,0 2,1 1,0 2,0 4,0 1,0 2,0 3,0 0,-1 1,-1 2,-2 0,0 1,-1 1,-1 0,-1 1,-2 1,-3 0,-1 -1,-1 -1,-2 -1,-1 -1,-1 -2,-2 -1,0 -2,0 -3,-1 -1,0 -2,0 -3,-1 -2,0 -3,-1 -4,-1 -1,0 -2,-1 -3,-2 0,0 -1,-1 -2,-2 0,-1 0,-3 0,-4 0,-1 0,-3 0,-4 1,-1 2,-2 3,-3 1,-1 2,-2 4,-2 1,-1 3,-1 5,-1 2,0 4,0 6,1 2,1 3,2 5,3l-2 2zm-39 1l0 0c1,-2 3,-4 4,-5 2,-2 4,-2 6,-2 1,0 2,0 2,0 1,0 2,0 2,1l0 4c-1,1 -1,1 -1,1 -1,0 -1,0 -2,0 0,0 -1,0 -2,0 -1,0 -2,0 -3,0 -1,0 -1,1 -2,2 -1,0 -1,1 -2,2 -1,1 -1,2 -1,3l0 22 -7 0 0 -35 4 0c1,0 1,0 1,1 1,0 1,0 1,1l0 5zm-14 23l0 0c0,1 -1,2 -2,2 -1,1 -2,2 -4,2 -1,1 -2,1 -3,1 -2,0 -3,0 -4,0 -3,0 -5,0 -7,-1 -2,-1 -4,-2 -5,-3 -1,-2 -3,-4 -3,-6 -1,-2 -2,-5 -2,-8 0,-2 1,-5 1,-7 1,-2 2,-4 4,-5 1,-2 3,-3 5,-4 2,-1 4,-1 6,-1 3,0 5,0 6,1 2,1 4,2 5,3 1,1 2,3 3,5 1,2 1,4 1,6 0,1 0,2 0,2 -1,1 -1,1 -1,1l-24 0c0,2 1,4 1,5 1,2 2,3 3,4 0,2 2,2 3,3 1,0 3,1 4,1 2,0 3,-1 4,-1 1,0 2,-1 3,-1 1,0 2,-1 2,-1 1,-1 1,-1 2,-1 0,0 0,1 1,1l1 2zm-5 -16l0 0c0,-2 0,-3 0,-4 0,-1 -1,-2 -2,-3 -1,-1 -2,-2 -3,-2 -1,-1 -2,-1 -3,-1 -3,0 -6,1 -7,3 -2,1 -3,4 -3,7l18 0zm-27 -14l0 0 -14 35 -6 0 -14 -35 5 0c0,0 1,0 1,1 0,0 1,0 1,1l9 22c0,1 0,2 0,2 0,1 1,2 1,3 0,-1 0,-2 0,-3 1,0 1,-1 1,-2l9 -22c0,-1 0,-1 1,-1 0,-1 0,-1 1,-1l5 0zm-39 -11l0 0c0,1 0,2 0,2 0,1 -1,1 -1,1 0,1 -1,1 -1,1 -1,1 -2,1 -2,1 -1,0 -1,0 -2,-1 0,0 -1,0 -1,-1 -1,0 -1,0 -1,-1 0,0 0,-1 0,-2 0,0 0,-1 0,-1 0,-1 0,-1 1,-2 0,0 1,0 1,-1 1,0 1,0 2,0 0,0 1,0 2,0 0,1 1,1 1,1 0,1 1,1 1,2 0,0 0,1 0,1zm-1 11l0 0 0 35 -6 0 0 -35 6 0zm-39 5l0 0c1,-1 2,-1 3,-2 0,-1 1,-1 2,-2 1,0 2,-1 3,-1 1,0 2,0 4,0 2,0 3,0 5,1 1,0 2,1 3,2 1,2 2,3 2,5 1,1 1,3 1,5l0 22 -6 0 0 -22c0,-3 0,-5 -2,-6 -1,-2 -3,-2 -5,-2 -2,0 -4,0 -5,1 -2,1 -3,2 -5,3l0 26 -6 0 0 -35 4 0c1,0 1,1 2,2l0 3zm-35 25l0 0c2,0 4,-1 6,-1 1,-1 3,-2 4,-3 1,-1 2,-3 2,-5 1,-1 1,-3 1,-5l0 -30 7 0 0 30c0,3 -1,5 -1,8 -1,2 -3,4 -4,6 -2,2 -4,3 -6,4 -3,1 -6,2 -9,2 -3,0 -5,-1 -8,-2 -2,-1 -4,-2 -6,-4 -2,-2 -3,-4 -4,-6 -1,-3 -1,-5 -1,-8l0 -30 6 0 0 30c0,2 1,4 1,5 1,2 2,4 3,5 1,1 2,2 4,3 2,0 3,1 5,1z"/>
   <path class="fil3" d="M1170 1000c-1,1 -2,2 -3,2 -1,1 -2,2 -3,2 -1,1 -3,1 -4,1 -1,0 -3,0 -4,0 -2,0 -4,0 -6,-1 -2,-1 -4,-2 -6,-3 -1,-2 -2,-4 -3,-6 -1,-2 -1,-5 -1,-8 0,-2 0,-5 1,-7 1,-2 2,-4 3,-5 1,-2 3,-3 5,-4 2,-1 4,-1 7,-1 2,0 4,0 6,1 1,1 3,2 4,3 2,1 3,3 3,5 1,2 1,4 1,6 0,1 0,2 0,2 0,1 -1,1 -1,1l-23 0c0,2 0,4 1,5 0,2 1,3 2,4 1,2 2,2 3,3 2,0 3,1 5,1 1,0 3,-1 4,-1 1,0 2,-1 3,-1 0,0 1,-1 2,-1 0,-1 1,-1 1,-1 0,0 1,1 1,1l2 2zm-5 -16l0 0c0,-2 0,-3 -1,-4 0,-1 -1,-2 -1,-3 -1,-1 -2,-2 -3,-2 -1,-1 -3,-1 -4,-1 -3,0 -5,1 -7,3 -2,1 -3,4 -3,7l19 0zm-27 21l0 0 -6 0c-1,0 -1,0 -1,0 -1,-1 -1,-1 -1,-1l-9 -14c0,0 0,1 0,1 0,0 0,1 -1,1l-8 12c0,0 0,0 0,1 -1,0 -1,0 -1,0l-6 0 12 -18 -11 -17 5 0c1,0 1,0 2,1 0,0 0,0 0,0l9 13c0,0 0,-1 1,-2l7 -11c0,0 0,0 1,0 0,-1 0,-1 1,-1l5 0 -12 17 13 18zm-38 -46l0 0c0,1 0,2 0,2 0,1 0,1 -1,1 0,1 -1,1 -1,1 -1,1 -1,1 -2,1 -1,0 -1,0 -2,-1 0,0 -1,0 -1,-1 0,0 -1,0 -1,-1 0,0 0,-1 0,-2 0,0 0,-1 0,-1 0,-1 1,-1 1,-2 0,0 1,0 1,-1 1,0 1,0 2,0 1,0 1,0 2,0 0,1 1,1 1,1 1,1 1,1 1,2 0,0 0,1 0,1zm-1 11l0 0 0 35 -6 0 0 -35 6 0zm-14 30l0 0c-1,1 -2,2 -3,2 -1,1 -2,2 -3,2 -2,1 -3,1 -4,1 -1,0 -3,0 -4,0 -2,0 -4,0 -6,-1 -3,-1 -4,-2 -6,-3 -1,-2 -2,-4 -3,-6 -1,-2 -1,-5 -1,-8 0,-2 0,-5 1,-7 0,-2 2,-4 3,-5 1,-2 3,-3 5,-4 2,-1 4,-1 7,-1 2,0 4,0 6,1 1,1 3,2 4,3 1,1 2,3 3,5 1,2 1,4 1,6 0,1 0,2 0,2 0,1 -1,1 -1,1l-23 0c0,2 0,4 1,5 0,2 1,3 2,4 1,2 2,2 3,3 2,0 3,1 5,1 1,0 2,-1 4,-1 1,0 2,-1 2,-1 1,0 2,-1 2,-1 1,-1 1,-1 2,-1 0,0 1,1 1,1l2 2zm-5 -16l0 0c0,-2 0,-3 -1,-4 0,-1 -1,-2 -2,-3 0,-1 -1,-2 -2,-2 -1,-1 -3,-1 -4,-1 -3,0 -5,1 -7,3 -2,1 -3,4 -3,7l19 0zm-47 -28l0 0c3,0 6,0 8,1 3,1 5,2 6,3 1,1 3,3 3,5 1,2 1,4 1,6 0,2 0,5 -1,6 0,2 -2,4 -3,5 -2,2 -4,3 -6,3 -2,1 -5,2 -8,2l-8 0 0 18 -6 0 0 -49 14 0zm0 25l0 0c2,0 4,0 5,0 2,-1 3,-2 4,-2 1,-1 2,-2 2,-4 1,-1 1,-2 1,-4 0,-3 -1,-5 -3,-7 -2,-2 -5,-3 -9,-3l-8 0 0 20 8 0zm-57 20l0 0c3,0 6,-1 7,-4 2,-2 3,-5 3,-9 0,-4 -1,-8 -3,-10 -1,-2 -4,-3 -7,-3 -2,0 -4,0 -5,0 -1,1 -2,2 -3,3 -1,1 -2,2 -2,4 -1,2 -1,4 -1,6 0,4 1,7 3,9 2,3 4,4 8,4zm0 -31l0 0c2,0 4,0 6,1 2,1 4,2 6,4 1,1 2,3 3,5 1,2 1,5 1,8 0,2 0,5 -1,7 -1,2 -2,4 -3,6 -2,1 -4,2 -6,3 -2,1 -4,1 -6,1 -3,0 -5,0 -7,-1 -2,-1 -4,-2 -5,-3 -2,-2 -3,-4 -4,-6 -1,-2 -1,-5 -1,-7 0,-3 0,-6 1,-8 1,-2 2,-4 4,-5 1,-2 3,-3 5,-4 2,-1 4,-1 7,-1zm-25 -15l0 0 0 50 -3 0c-1,0 -2,0 -2,-1l0 -5c-2,2 -4,4 -6,5 -1,1 -4,1 -6,1 -2,0 -4,0 -6,-1 -1,0 -3,-2 -4,-3 -1,-2 -2,-3 -2,-6 -1,-2 -1,-4 -1,-7 0,-3 0,-5 1,-7 0,-3 1,-4 3,-6 1,-2 3,-3 4,-4 2,-1 4,-1 7,-1 2,0 4,0 5,1 2,1 3,1 4,3l0 -19 6 0zm-6 24l0 0c-1,-2 -2,-3 -3,-4 -2,0 -3,-1 -5,-1 -3,0 -6,2 -7,4 -2,2 -3,5 -3,10 0,2 0,4 1,6 0,1 1,2 1,4 1,1 2,1 3,2 1,0 2,1 4,1 2,0 4,-1 5,-2 2,-1 3,-2 4,-4l0 -16zm-64 22l0 0c3,0 6,-1 8,-4 1,-2 2,-5 2,-9 0,-4 -1,-8 -2,-10 -2,-2 -5,-3 -8,-3 -2,0 -3,0 -5,0 -1,1 -2,2 -3,3 -1,1 -1,2 -2,4 0,2 0,4 0,6 0,4 1,7 2,9 2,3 4,4 8,4zm0 -31l0 0c2,0 5,0 7,1 2,1 4,2 5,4 1,1 3,3 3,5 1,2 1,5 1,8 0,2 0,5 -1,7 0,2 -2,4 -3,6 -1,1 -3,2 -5,3 -2,1 -5,1 -7,1 -3,0 -5,0 -7,-1 -2,-1 -4,-2 -5,-3 -2,-2 -3,-4 -3,-6 -1,-2 -2,-5 -2,-7 0,-3 1,-6 2,-8 0,-2 1,-4 3,-5 1,-2 3,-3 5,-4 2,-1 4,-1 7,-1z"/>
   <path class="fil4" d="M1386 822c8,9 17,16 26,19 9,4 19,6 29,6 10,0 20,-2 28,-6 8,-4 15,-10 21,-18 6,-8 11,-19 14,-31 3,-13 5,-28 5,-46 0,-17 -2,-32 -4,-44 -3,-12 -7,-22 -12,-29 -5,-8 -11,-13 -18,-16 -7,-4 -15,-5 -23,-5 -15,0 -27,2 -37,8 -10,6 -20,14 -29,26l0 136zm-4 -189l0 0c6,-6 12,-13 19,-18 7,-6 15,-11 23,-15 8,-4 17,-8 26,-10 9,-2 19,-3 30,-3 17,0 32,3 46,10 14,7 26,18 37,31 10,14 17,31 23,51 6,19 9,42 9,67 0,24 -4,45 -10,65 -6,20 -15,37 -27,52 -12,14 -26,25 -42,34 -17,8 -35,12 -55,12 -17,0 -31,-3 -43,-8 -12,-5 -22,-12 -32,-20l0 124 -83 0 0 -412 51 0c11,0 18,5 21,14l7 26z"/>
   <path class="fil4" d="M975 774c-21,1 -38,3 -51,5 -14,3 -24,6 -32,10 -8,4 -14,9 -17,14 -4,5 -5,11 -5,17 0,12 3,20 10,25 7,5 16,8 28,8 14,0 26,-3 36,-8 10,-4 20,-12 31,-23l0 -48zm-170 -138l0 0c18,-17 38,-29 60,-37 23,-8 47,-12 72,-12 19,0 36,3 50,9 15,6 27,14 37,25 11,11 18,24 24,38 5,15 8,32 8,49l0 196 -38 0c-8,0 -14,-1 -18,-3 -4,-2 -8,-7 -10,-14l-7 -20c-8,7 -15,13 -23,18 -7,6 -15,10 -23,13 -7,4 -16,7 -25,8 -9,2 -19,3 -30,3 -14,0 -26,-2 -37,-5 -12,-4 -21,-9 -30,-17 -8,-7 -14,-16 -18,-26 -5,-11 -7,-23 -7,-37 0,-12 3,-23 9,-35 6,-11 16,-22 30,-31 14,-9 33,-17 57,-23 23,-6 53,-10 89,-11l0 -16c0,-19 -5,-33 -13,-43 -8,-9 -20,-13 -35,-13 -12,0 -22,1 -29,4 -8,2 -14,5 -20,8 -6,4 -11,6 -16,9 -6,3 -11,4 -18,4 -6,0 -11,-1 -15,-4 -4,-3 -7,-6 -9,-10l-15 -27z"/>
   <path class="fil4" d="M1165 644c10,-18 21,-32 34,-42 13,-10 28,-15 46,-15 14,0 25,3 34,10l-5 61c-1,4 -3,7 -5,9 -2,1 -5,2 -9,2 -3,0 -7,-1 -13,-2 -7,0 -12,-1 -17,-1 -8,0 -15,1 -21,3 -6,3 -11,6 -16,10 -4,4 -8,9 -12,15 -4,5 -7,12 -11,20l0 190 -83 0 0 -311 49 0c9,0 15,1 18,4 3,3 5,8 7,16l4 31z"/>
   <path class="fil4" d="M431 629c6,-6 13,-12 19,-17 7,-5 14,-9 22,-13 7,-3 15,-6 24,-8 9,-2 18,-3 29,-3 17,0 32,3 45,9 13,5 24,14 33,24 9,11 16,23 20,38 5,14 7,30 7,47l0 198 -83 0 0 -198c0,-17 -4,-30 -12,-40 -8,-10 -20,-14 -36,-14 -12,0 -23,2 -33,7 -10,5 -20,12 -29,21l0 224 -84 0 0 -311 52 0c10,0 17,5 21,14l5 22z"/>
   <path class="fil4" d="M752 655l0 249 -84 0 0 -249c4,3 8,5 12,7 9,3 19,5 29,5 10,0 20,-2 29,-5 5,-2 9,-5 14,-7z"/>
   <path class="fil4" d="M759 593c0,7 -2,13 -4,18 -3,6 -6,11 -11,16 -4,4 -10,7 -16,10 -6,2 -12,4 -19,4 -6,0 -13,-2 -18,-4 -6,-3 -11,-6 -16,-10 -4,-5 -8,-10 -10,-16 -3,-5 -4,-11 -4,-18 0,-7 1,-13 4,-19 2,-6 6,-11 10,-15 5,-5 10,-8 16,-10 5,-3 12,-4 18,-4 7,0 13,1 19,4 6,2 12,5 16,10 5,4 8,9 11,15 2,6 4,12 4,19z"/>
   <path class="fil4" d="M237 728l0 -219 85 0 0 222c0,27 -4,52 -12,74 -5,14 -11,27 -19,39 -30,39 -77,65 -130,65 -53,0 -99,-25 -129,-65 -8,-12 -15,-25 -20,-39 -8,-22 -12,-47 -12,-74l0 -222 85 0 0 219 0 26c0,26 13,48 35,57 28,12 55,12 82,0 23,-11 35,-31 35,-57l0 -26z"/>
  </g>
 </g>
</svg>
